{"title":"18+.Fifty.Shades.Freed.2018.720p.WEBRip.x264.AC3.LLLG","magnet":"magnet:?xt=urn:btih:632d5ee8ce67817705383b7e9afaf8bb23802039&dn=18%2B.Fifty.Shades.Freed.2018.720p.WEBRip.x264.AC3.LLLG&tr=udp%3A%2F%2Ftracker.leechers-paradise.org%3A6969&tr=udp%3A%2F%2Fzer0day.ch%3A1337&tr=udp%3A%2F%2Fopen.demonii.com%3A1337&tr=udp%3A%2F%2Ftracker.coppersurfer.tk%3A6969&tr=udp%3A%2F%2Fexodus.desync.com%3A6969","uploader":"LifeLongg","categoryP":"video","categoryS":"hd___movies","size":"1302257195","seeders":"2","leechers":"28","description":" <a href=\"http://picserver4u.com/d/0721.html\" rel=\"nofollow\" target=\"_NEW\">http://picserver4u.com/d/0721.html</a>\r\n <a href=\"\nhttp://picserver4u.com/d/0722.html\" rel=\"nofollow\" target=\"_NEW\">\nhttp://picserver4u.com/d/0722.html</a>\r\n <a href=\"\nhttp://picserver4u.com/d/0723.html\" rel=\"nofollow\" target=\"_NEW\">\nhttp://picserver4u.com/d/0723.html</a>\r\n <a href=\"\nhttp://picserver4u.com/d/0724.html\" rel=\"nofollow\" target=\"_NEW\">\nhttp://picserver4u.com/d/0724.html</a>\r\n <a href=\"\nhttp://picserver4u.com/d/0725.html\" rel=\"nofollow\" target=\"_NEW\">\nhttp://picserver4u.com/d/0725.html</a>\r\n\r\n************************************************************** \r\n\r\nComplete name                            : 18+.Fifty.Shades.Freed.2018.720p.WEBRip.x264.AC3.LLG.mp4\r\nFormat                                   : MPEG-4\r\nFormat profile                           : Base Media\r\nCodec ID                                 : isom (isom/iso2/avc1/mp41)\r\nFile size                                : 1.19 GiB\r\nDuration                                 : 1 h 45 min\r\nOverall bit rate                         : 1 616 kb/s\r\nWriting application                      : Lavf57.56.101\r\n\r\nVideo\r\nID                                       : 1\r\nFormat                                   : AVC\r\nFormat/Info                              : Advanced Video Codec\r\nFormat profile                           : <a href=\"/cdn-cgi/l/email-protection\" class=\"__cf_email__\" data-cfemail=\"672f0e000f272b544956\">[email&#xA0;protected]</a>\r\nFormat settings                          : CABAC / 4 Ref Frames\r\nFormat settings, CABAC                   : Yes\r\nFormat settings, RefFrames               : 4 frames\r\nCodec ID                                 : avc1\r\nCodec ID/Info                            : Advanced Video Coding\r\nDuration                                 : 1 h 45 min\r\nBit rate                                 : 1 500 kb/s\r\nWidth                                    : 1 280 pixels\r\nHeight                                   : 720 pixels\r\nDisplay aspect ratio                     : 2.40:1\r\nFrame rate mode                          : Constant\r\nFrame rate                               : 23.976 (23976/1000) FPS\r\nColor space                              : YUV\r\nChroma subsampling                       : 4:2:0\r\nBit depth                                : 8 bits\r\nScan type                                : Progressive\r\nBits/(Pixel*Frame)                       : 0.068\r\nStream size                              : 1.09 GiB (92%)\r\n\r\nAudio\r\nID                                       : 2\r\nFormat                                   : AC-3\r\nFormat/Info                              : Audio Coding 3\r\nCodec ID                                 : ac-3\r\nDuration                                 : 1 h 45 min\r\nBit rate mode                            : Constant\r\nBit rate                                 : 128 kb/s\r\nChannel(s)                               : 2 channels\r\nChannel positions                        : Front: L R\r\nSampling rate                            : 48.0 kHz\r\nFrame rate                               : 31.250 FPS (1536 SPF)\r\nBit depth                                : 16 bits\r\nCompression mode                         : Lossy\r\nStream size                              : 96.4 MiB (8%)\r\nService kind                             : Complete Main\r\nDefault                                  : Yes\r\nAlternate group                          : 1","last_updated":"2018-04-28T12:06:57.999Z","parsed":{"xt":"urn:btih:632d5ee8ce67817705383b7e9afaf8bb23802039","dn":"18 .Fifty.Shades.Freed.2018.720p.WEBRip.x264.AC3.LLLG","tr":["udp://exodus.desync.com:6969","udp://open.demonii.com:1337","udp://tracker.coppersurfer.tk:6969","udp://tracker.leechers-paradise.org:6969","udp://zer0day.ch:1337"],"infoHash":"632d5ee8ce67817705383b7e9afaf8bb23802039","infoHashBuffer":{"type":"Buffer","data":[99,45,94,232,206,103,129,119,5,56,59,126,154,250,248,187,35,128,32,57]},"name":"18 .Fifty.Shades.Freed.2018.720p.WEBRip.x264.AC3.LLLG","announce":["udp://exodus.desync.com:6969","udp://open.demonii.com:1337","udp://tracker.coppersurfer.tk:6969","udp://tracker.leechers-paradise.org:6969","udp://zer0day.ch:1337"],"urlList":[]}}